<?xml version="1.0" encoding="UTF-8" standalone="no"?>
<svg width="512" height="512" shape-rendering="geometricPrecision" text-rendering="geometricPrecision"
   image-rendering="optimizeQuality" fill-rule="evenodd" clip-rule="evenodd" version="1.1" id="svg9"
   sodipodi:docname="ghtr.svg" xml:space="preserve" inkscape:version="1.4.2 (f4327f4, 2025-05-13)"
   xmlns:inkscape="http://www.inkscape.org/namespaces/inkscape"
   xmlns:sodipodi="http://sodipodi.sourceforge.net/DTD/sodipodi-0.dtd" xmlns:xlink="http://www.w3.org/1999/xlink"
   xmlns="http://www.w3.org/2000/svg" xmlns:svg="http://www.w3.org/2000/svg">
   <defs id="defs9">
      <linearGradient id="linearGradient8" inkscape:collect="always">
         <stop style="stop-color:#ffffff;stop-opacity:1;" offset="0" id="stop8" />
         <stop style="stop-color:#c8faeb;stop-opacity:1;" offset="1" id="stop9" />
      </linearGradient>
      <linearGradient id="linearGradient6" inkscape:collect="always">
         <stop style="stop-color:#ffffff;stop-opacity:1;" offset="0" id="stop6" />
         <stop style="stop-color:#c8faeb;stop-opacity:1;" offset="1" id="stop7" />
      </linearGradient>
      <linearGradient id="linearGradient4" inkscape:collect="always">
         <stop style="stop-color:#ffffff;stop-opacity:1;" offset="0" id="stop4" />
         <stop style="stop-color:#c8faeb;stop-opacity:1;" offset="1" id="stop5" />
      </linearGradient>
      <linearGradient id="linearGradient2" inkscape:collect="always">
         <stop style="stop-color:#ffffff;stop-opacity:1;" offset="0" id="stop2" />
         <stop style="stop-color:#c8faeb;stop-opacity:1;" offset="1" id="stop3" />
      </linearGradient>
      <linearGradient inkscape:collect="always" xlink:href="#linearGradient2" id="linearGradient3" x1="101.67561"
         y1="201.33691" x2="101.67561" y2="326.94183" gradientUnits="userSpaceOnUse"
         gradientTransform="translate(-21.064069)" />
      <linearGradient inkscape:collect="always" xlink:href="#linearGradient4" id="linearGradient5" x1="224.76208"
         y1="179.68039" x2="224.76208" y2="318.83585" gradientUnits="userSpaceOnUse"
         gradientTransform="translate(-21.064069)" />
      <linearGradient inkscape:collect="always" xlink:href="#linearGradient6" id="linearGradient7" x1="339.83563"
         y1="197.11653" x2="339.83563" y2="335.02441" gradientUnits="userSpaceOnUse"
         gradientTransform="translate(-21.064069)" />
      <linearGradient inkscape:collect="always" xlink:href="#linearGradient8" id="linearGradient9" x1="458.96637"
         y1="214.14894" x2="458.96637" y2="342.57104" gradientUnits="userSpaceOnUse"
         gradientTransform="translate(-21.064069)" />
   </defs>
   <sodipodi:namedview id="namedview9" pagecolor="#ffffff" bordercolor="#111111" borderopacity="1"
      inkscape:showpageshadow="0" inkscape:pageopacity="0" inkscape:pagecheckerboard="1" inkscape:deskcolor="#d1d1d1"
      inkscape:zoom="0.37979366" inkscape:cx="59.242695" inkscape:cy="340.97462" inkscape:window-width="1366"
      inkscape:window-height="715" inkscape:window-x="-8" inkscape:window-y="-8" inkscape:window-maximized="1"
      inkscape:current-layer="layer8" />

   <g inkscape:groupmode="layer" id="layer1" inkscape:label="Main">
      <g inkscape:groupmode="layer" id="layer9" inkscape:label="R">
         <path
            style="fill:url(#linearGradient9);fill-opacity:1;stroke:#210000;stroke-width:5;stroke-linecap:round;stroke-linejoin:round;stroke-dasharray:none;stroke-opacity:1"
            d="m 376.19111,243.22418 c 5.31179,11.75707 7.70866,22.69984 28.9631,22.7097 -5.78537,19.75463 -11.18301,41.06015 -17.77281,57.59706 -2.24387,3.58715 -11.27798,6.79706 0.98737,11.19028 16.64605,3.124 29.83424,2.09858 42.12814,0 6.03476,0.54972 8.19705,-4.70928 10.86116,-9.21553 -0.78518,-3.36063 -5.00458,-4.14559 -9.21553,-4.93689 9.87956,-22.81973 16.46079,-71.19289 44.1029,-54.3058 9.01289,4.62454 10.35726,1.58056 12.83592,-0.32913 6.58726,-3.94477 8.06773,-12.99633 10.53203,-21.06407 -18.20932,-23.68999 -44.11379,-16.23532 -59.90095,-4.27863 l 11.84854,-17.11456 c -29.88469,-14.89948 -28.20218,23.21291 -75.36987,19.74757 z"
            id="path7" sodipodi:nodetypes="ccccccccccccc" />
      </g>
      <g inkscape:groupmode="layer" id="layer8" inkscape:label="T">
         <path
            style="fill:url(#linearGradient7);stroke:#1e0000;stroke-width:5;stroke-linecap:round;stroke-linejoin:round;stroke-dasharray:none;stroke-opacity:1"
            d="m 252.31748,208.93263 c 8.07529,10.48878 16.05343,21.85184 24.97483,24.72556 8.82984,-1.52042 18.08347,-2.68508 27.79095,0.24927 -2.91512,28.3166 -6.61985,54.60382 -24.99822,70.03437 -5.79895,5.63 -0.39903,7.96621 0.46545,11.63637 8.39412,-0.24016 13.64619,16.27728 19.54909,29.32363 6.75476,5.99973 12.72727,3.0036 18.61818,-0.9309 7.19303,-4.67151 7.30006,-50.67107 14.4291,-71.21455 3.98557,-2.54289 8.60509,-4.29333 8.37818,-12.10182 -0.10783,-2.39301 -2.81358,-4.01627 -8.84364,-4.65455 4.73667,-8.68667 0.94029,-20.78655 1.39637,-31.18545 l 47.01091,-9.27602 c 8.64028,-12.80302 2.06399,-26.82809 -4.18909,-31.68399 -38.36859,8.66951 -92.88115,10.24882 -124.58211,25.07808 z"
            id="path5" sodipodi:nodetypes="cccccccccccccc" />
      </g>
      <g inkscape:groupmode="layer" id="layer7" inkscape:label="H">
         <path
            style="fill:url(#linearGradient5);stroke:#000000;stroke-width:5;stroke-linecap:round;stroke-linejoin:round;stroke-dasharray:none;stroke-opacity:1"
            d="m 172.56503,158.72001 c 9.7136,50.43583 -14.89762,91.51035 -30.72,134.98182 -5.71057,5.62373 -7.1346,10.51394 -2.32727,16.75637 12.92306,11.3488 18.54718,19.04813 24.66909,26.99636 13.23227,7.66162 13.96591,-1.34162 17.22182,-6.98182 5.97364,-23.19305 -1.57587,-63.05141 32.58182,-78.19636 -25.33113,55.4782 -13.16523,77.90817 13.03272,87.97091 27.25875,-22.66296 37.6143,-57.15696 43.75273,-88.90182 -10.32479,13.35746 -20.27518,25.96612 -28.85818,35.84 l 4.76749,-31.6606 c 8.607,-17.29301 -11.75692,-37.06278 -41.5384,-25.12486 13.52078,-72.32057 -7.71352,-74.15834 -32.58182,-71.68 z"
            id="path3" sodipodi:nodetypes="cccccccccccc" />
      </g>
      <g inkscape:groupmode="layer" id="layer2" inkscape:label="G">
         <path
            style="fill:url(#linearGradient3);stroke:#000000;stroke-width:5;stroke-linecap:round;stroke-linejoin:round;stroke-dasharray:none;stroke-opacity:1"
            d="m 111.35776,235.05456 c -0.48329,-12.83835 -2.87388,-21.48063 -9.54182,-20.71273 -60.562633,31.08111 -64.405078,111.01873 -9.774549,68.18909 -13.778915,2.9176 -21.070424,-4.38254 -21.876365,-21.96591 22.901325,-0.87554 41.870924,-5.10237 53.992734,-23.64864 l 16.75636,8.84364 c -26.12707,40.48603 -17.22591,62.29034 -19.08364,89.83273 l -27.927269,1.39637 0.42552,-15.46326 c -110.90752,68.28572 -95.4612002,-179.48959 34.949029,-121.38039 -0.36558,11.83612 -2.11884,17.63868 -3.72364,26.99637 z"
            id="path1" sodipodi:nodetypes="cccccccccccc" />
      </g>
   </g>
</svg>