<?xml version="1.0" encoding="UTF-8" standalone="no"?>
<!-- Created with Inkscape (http://www.inkscape.org/) -->

<svg
   width="512"
   height="512"
   viewBox="0 0 512 512"
   version="1.1"
   id="svg1"
   xml:space="preserve"
   inkscape:version="1.4.2 (f4327f4, 2025-05-13)"
   sodipodi:docname="Icon.svg"
   xmlns:inkscape="http://www.inkscape.org/namespaces/inkscape"
   xmlns:sodipodi="http://sodipodi.sourceforge.net/DTD/sodipodi-0.dtd"
   xmlns="http://www.w3.org/2000/svg"
   xmlns:svg="http://www.w3.org/2000/svg">
  <sodipodi:namedview
   id="namedview1"
   pagecolor="#ffffff"
   bordercolor="#111111"
   borderopacity="1"
   inkscape:showpageshadow="0"
   inkscape:pageopacity="0"
   inkscape:pagecheckerboard="1"
   inkscape:deskcolor="#d1d1d1"
   inkscape:document-units="px"
   inkscape:zoom="0.53710938"
   inkscape:cx="47.476363"
   inkscape:cy="305.33818"
   inkscape:window-width="1366"
   inkscape:window-height="715"
   inkscape:window-x="-8"
   inkscape:window-y="-8"
   inkscape:window-maximized="1"
   inkscape:current-layer="layer2" />
  <defs
   id="defs1" />
  <g
   inkscape:groupmode="layer"
   id="layer2"
   inkscape:label="face"
   style="display:inline">
    <path
   style="display:inline;fill:#ffffff;fill-opacity:1;stroke:#000000;stroke-width:7.5;stroke-linecap:round;stroke-linejoin:round;stroke-dasharray:none;stroke-opacity:1"
   d="m 302.33395,414.935 c 40.43441,-10.42992 105.20417,-19.01386 134.76127,-72.09461 34.31965,-47.77446 4.69309,-73.67096 -15.23546,-108.69543 C 405.11485,212.9333 391.73634,203.37949 377.66331,197.68214 302.23709,181.25894 247.37554,205.5948 202.74166,238.28727 74.484266,347.65075 174.14505,445.11502 302.33395,414.935 Z"
   id="path1"
   sodipodi:nodetypes="cccccc" />
    <g
   inkscape:groupmode="layer"
   id="layer6"
   inkscape:label="mouth">
      <path
   style="display:inline;fill:none;fill-opacity:1;stroke:#000000;stroke-width:6;stroke-linecap:round;stroke-linejoin:round;stroke-dasharray:none;stroke-opacity:1"
   d="m 420.47709,320.80836 c 8.82813,29.23663 -34.3082,61.45266 -40.92988,6.40199 -14.01533,80.51618 -83.53545,63.0876 -91.53851,38.04657"
   id="path9"
   sodipodi:nodetypes="ccc" />
      <path
   style="display:inline;fill:#dd9baf;fill-opacity:1;stroke:#000000;stroke-width:6;stroke-linecap:round;stroke-linejoin:round;stroke-dasharray:none;stroke-opacity:1"
   d="m 379.48178,324.77433 c -10.39588,-1.70393 -21.92817,-13.53235 -22.96215,-17.00078 2.8104,-5.62512 28.15285,-11.78646 32.87303,-10.9168 4.9641,4.12547 -0.50649,24.77564 -9.91088,27.91758 z"
   id="path8"
   sodipodi:nodetypes="cccc" />
    </g>
    <g
   inkscape:groupmode="layer"
   id="layer7"
   inkscape:label="left_eye">
      <path
   style="display:inline;fill:#000000;fill-opacity:1;stroke:none;stroke-width:5;stroke-linecap:round;stroke-linejoin:round;stroke-dasharray:none;stroke-opacity:1"
   d="m 266.24,334.08 c 4.47978,0.91872 23.69618,-2.8197 26.76364,-4.53818 1.52029,-4.0374 1.24009,-17.6268 -2.8492,-27.80264 -2.2738,-5.65816 -6.557,-10.5876 -12.39444,-14.43736 -5.98205,0.88475 -11.38521,2.25932 -13.38182,6.51637 -0.39099,4.798 3.57441,21.2108 15.36,32.9309 -6.9547,1.01137 -13.29239,4.20658 -13.49818,7.33091 z"
   id="path10"
   sodipodi:nodetypes="ccscccc" />
      <path
   style="display:inline;fill:#ffffff;fill-opacity:1;stroke:none;stroke-width:5;stroke-linecap:round;stroke-linejoin:round;stroke-dasharray:none;stroke-opacity:1"
   d="m 275.66546,293.58546 c -2.58234,0.4713 -4.14869,3.19428 -4.07273,5.81818 0.0849,2.9313 2.19175,5.54345 5.12,5.70182 3.5339,0.19113 5.93013,-3.22685 5.58545,-6.74909 -0.32805,-3.35228 -3.31916,-5.37566 -6.63272,-4.77091 z"
   id="path11"
   sodipodi:nodetypes="sssss" />
    </g>
    <g
   inkscape:groupmode="layer"
   id="layer8"
   inkscape:label="right_eye">
      <path
   style="display:inline;fill:#000000;fill-opacity:1;stroke:none;stroke-width:5;stroke-linecap:round;stroke-linejoin:round;stroke-dasharray:none;stroke-opacity:1"
   d="m 429.84727,280.55273 c -0.4999,1.79235 -12.239,3.91354 -17.10545,3.60727 -2.13767,-0.56673 -3.87772,-3.10057 -5.17818,-4.71273 -34.10138,-50.77892 22.92429,-41.95952 12.74182,-2.03636 l -0.23273,2.32727 c 3.38649,0.0149 9.51181,-0.44423 9.77454,0.81455 z"
   id="path12"
   sodipodi:nodetypes="cccccc" />
      <path
   style="fill:#ffffff;fill-opacity:1;stroke:none;stroke-width:5;stroke-linecap:round;stroke-linejoin:round;stroke-dasharray:none;stroke-opacity:1"
   d="m 406.67921,251.41704 c -1.5472,0.746 -2.97375,5.37872 -2.54003,7.04071 0.66037,2.53049 3.18286,5.4073 5.74174,4.86731 2.74018,-0.57825 4.74288,-5.04865 3.64721,-7.62595 -1.13744,-2.67554 -4.23015,-5.54474 -6.84892,-4.28207 z"
   id="path13"
   sodipodi:nodetypes="sssss" />
    </g>
  </g>
  <g
   inkscape:groupmode="layer"
   id="layer3"
   inkscape:label="cap"
   style="display:inline">
    <path
   style="display:inline;fill:#e5b3c2;fill-opacity:1;stroke:#000000;stroke-width:7.5;stroke-linecap:round;stroke-linejoin:round;stroke-dasharray:none;stroke-opacity:1"
   d="M 172.56501,398.79755 C 107.18211,256.66315 396.50386,151.52439 429.83322,242.60927 454.03227,191.7241 310.03676,98.079565 181.01934,148.10673 c -83.917414,28.1253 -64.79924,152.46817 -58.23193,209.0846 5.0783,14.13183 23.83798,43.88222 49.7776,41.60622 z"
   id="path2"
   sodipodi:nodetypes="ccccc" />
    <path
   style="display:inline;fill:none;fill-opacity:1;stroke:#000000;stroke-width:7.5;stroke-linecap:round;stroke-linejoin:round;stroke-dasharray:none;stroke-opacity:1"
   d="M 118.87098,317.18284 C 149.84779,222.07022 255.65472,128.2565 386.47628,170.73415"
   id="path3"
   sodipodi:nodetypes="cc" />
    <g
   inkscape:groupmode="layer"
   id="layer5"
   inkscape:label="right_ear">
      <path
   style="display:inline;fill:#e5b3c2;fill-opacity:1;stroke:#000000;stroke-width:7.5;stroke-linecap:round;stroke-linejoin:round;stroke-dasharray:none;stroke-opacity:1"
   d="m 282.06104,141.19508 c 9.14535,-22.78516 12.62114,-48.121627 38.17862,-63.521328 48.55177,16.589152 41.60223,59.573298 48.12542,85.565928"
   id="path6"
   sodipodi:nodetypes="ccc" />
      <path
   style="fill:#ffffff;fill-opacity:1;stroke:#000000;stroke-width:5;stroke-linecap:round;stroke-linejoin:round;stroke-dasharray:none;stroke-opacity:1"
   d="m 326.74909,138.93818 c 7.31172,6.78666 15.3758,8.59367 23.27273,11.86909 8.99481,-2.0755 -7.78317,-50.09692 -20.01455,-53.527272 -3.47706,10.307872 -3.39801,27.130602 -3.25818,41.658182 z"
   id="path7"
   sodipodi:nodetypes="cccc" />
    </g>
    <g
   inkscape:groupmode="layer"
   id="layer4"
   inkscape:label="left_ear"
   style="display:inline">
      <path
   style="display:inline;fill:#e5b3c2;fill-opacity:1;stroke:#000000;stroke-width:7.5;stroke-linecap:round;stroke-linejoin:round;stroke-dasharray:none;stroke-opacity:1"
   d="M 118.22545,281.6 C 91.885214,262.57022 58.062629,240.65122 52.596364,171.75273 91.131863,175.12882 130.56252,184.77033 163.84,208.05818"
   id="path4"
   sodipodi:nodetypes="ccc" />
      <path
   style="display:inline;fill:#ffffff;fill-opacity:1;stroke:#000000;stroke-width:5;stroke-linecap:round;stroke-linejoin:round;stroke-dasharray:none;stroke-opacity:1"
   d="m 121.61693,261.44873 c -13.79747,-18.41386 -38.389793,-40.71202 -42.457267,-68.1291 18.72504,-1.49187 46.424057,21.93523 67.470837,32.58347 z"
   id="path5"
   sodipodi:nodetypes="cccc" />
    </g>
  </g>
</svg>
