<?xml version="1.0" encoding="UTF-8" standalone="no"?>
<svg width="512" height="512" shape-rendering="geometricPrecision" text-rendering="geometricPrecision"
   image-rendering="optimizeQuality" fill-rule="evenodd" clip-rule="evenodd" version="1.1" id="svg9"
   sodipodi:docname="hybrid.svg" xml:space="preserve" inkscape:version="1.4.2 (f4327f4, 2025-05-13)"
   xmlns:inkscape="http://www.inkscape.org/namespaces/inkscape"
   xmlns:sodipodi="http://sodipodi.sourceforge.net/DTD/sodipodi-0.dtd" xmlns:xlink="http://www.w3.org/1999/xlink"
   xmlns="http://www.w3.org/2000/svg" xmlns:svg="http://www.w3.org/2000/svg">
   <defs id="defs9">
      <linearGradient id="linearGradient8" inkscape:collect="always">
         <stop style="stop-color:#64c814;stop-opacity:1;" offset="0" id="stop8" />
         <stop style="stop-color:#0a96f0;stop-opacity:1;" offset="1" id="stop9" />
      </linearGradient>
      <linearGradient id="linearGradient1" inkscape:collect="always">
         <stop style="stop-color:#ff0000;stop-opacity:1;" offset="0" id="stop1" />
         <stop style="stop-color:#ffc80a;stop-opacity:1;" offset="1" id="stop2" />
      </linearGradient>
      <linearGradient inkscape:collect="always" xlink:href="#linearGradient1" id="linearGradient2" x1="188.24758"
         y1="279.59261" x2="310.70763" y2="279.59261" gradientUnits="userSpaceOnUse"
         gradientTransform="matrix(1.6648601,0,0,1.6648601,-254.28931,-259.59119)" />
      <linearGradient inkscape:collect="always" xlink:href="#linearGradient8" id="linearGradient9" x1="345.9682"
         y1="266.93819" x2="466.47987" y2="266.93819" gradientUnits="userSpaceOnUse"
         gradientTransform="matrix(1.6648601,0,0,1.6648601,-311.07477,-266.10755)" />
   </defs>
   <sodipodi:namedview id="namedview9" pagecolor="#ffffff" bordercolor="#111111" borderopacity="1"
      inkscape:showpageshadow="0" inkscape:pageopacity="0" inkscape:pagecheckerboard="1" inkscape:deskcolor="#d1d1d1"
      inkscape:zoom="0.53710935" inkscape:cx="299.75274" inkscape:cy="278.34183" inkscape:window-width="1366"
      inkscape:window-height="715" inkscape:window-x="-8" inkscape:window-y="-8" inkscape:window-maximized="1"
      inkscape:current-layer="layer1" />

   <g inkscape:groupmode="layer" id="layer1" inkscape:label="Main">
      <g inkscape:groupmode="layer" id="layer6" inkscape:label="交">
         <path
            style="fill:#0a96f0;fill-opacity:1;stroke:#000000;stroke-width:3.32972;stroke-linecap:round;stroke-linejoin:round;stroke-dasharray:none;stroke-opacity:1"
            d="m 415.02223,242.23784 46.495,-1.9373 -34.09634,-48.04483 -52.69434,-2.71221 z" id="path10" />
         <path
            style="fill:#64c814;fill-opacity:1;stroke:#000000;stroke-width:3.32972;stroke-linecap:round;stroke-linejoin:round;stroke-dasharray:none;stroke-opacity:1"
            d="m 266.62567,241.85038 49.98213,1.16237 43.78279,-53.46925 -48.81974,-1.54983 z" id="path9" />
         <path
            style="fill:url(#linearGradient9);fill-opacity:1;stroke:#000000;stroke-width:3.32972;stroke-linecap:round;stroke-linejoin:round;stroke-dasharray:none;stroke-opacity:1"
            d="m 271.27518,161.64649 c -6.17773,9.08811 -5.93841,24.34776 -1.16238,32.15906 l 190.24206,1.16237 c 5.18971,-10.60618 4.60616,-21.59723 -1.16238,-32.93397 z"
            id="path8" sodipodi:nodetypes="ccccc" />
         <path
            style="display:inline;fill:#64c814;fill-opacity:1;stroke:#000000;stroke-width:3.32972;stroke-linecap:round;stroke-linejoin:round;stroke-dasharray:none;stroke-opacity:1"
            d="m 332.10614,101.203 c -16.99441,42.52452 -6.67416,64.85995 26.73462,70.12995 l -7.74916,9.68647 c 10.95272,2.30222 21.54947,2.46875 31.77159,0.38745 15.64994,-8.27994 14.27032,-25.41524 12.0112,-43.00789 l -11.62375,1.54984 c 3.54157,-33.64721 -32.66461,-19.08503 -51.1445,-38.74582 z"
            id="path6" sodipodi:nodetypes="ccccccc" />
         <path
            style="fill:none;fill-opacity:1;stroke:#000000;stroke-width:3.32972;stroke-linecap:round;stroke-linejoin:round;stroke-dasharray:none;stroke-opacity:1"
            d="m 348.38172,128.68962 c 4.6398,-0.78921 37.18564,36.40628 33.42489,37.5345" id="path7"
            sodipodi:nodetypes="cc" />
         <path
            style="display:inline;fill:#64c814;fill-opacity:1;stroke:#000000;stroke-width:3.32972;stroke-linecap:round;stroke-linejoin:round;stroke-dasharray:none;stroke-opacity:1"
            d="m 275.85875,247.84904 52.24886,1.93728 c 10.44376,11.20143 38.74344,14.03232 29.86323,33.69886 38.32999,-42.20958 89.0828,-41.79363 103.28835,-32.60295 -15.70787,17.70878 -47.03226,38.90741 -62.74014,50.13731 23.41503,26.15261 43.19144,36.53789 64.65796,54.24695 l -59.17847,-0.54795 -31.78105,-19.17821 c -1.65886,10.9124 -91.97721,43.04768 -90.68553,37.53449 -20.85465,-14.46191 28.82491,-63.6074 63.2881,-63.28809 -19.95886,-36.15497 -43.11266,-32.14237 -68.96131,-61.93769 z"
            id="path11" sodipodi:nodetypes="ccccccccccc" />
         <path
            style="display:inline;fill:#64c814;fill-opacity:1;stroke:#000000;stroke-width:3.32972;stroke-linecap:round;stroke-linejoin:round;stroke-dasharray:none;stroke-opacity:1"
            d="m 256.16429,378.62318 c 29.67916,-1.75692 52.11988,-25.22917 77.10422,-41.07058 -14.47386,-9.44121 -92.68736,-5.52136 -77.10422,41.07058 z"
            id="path12" sodipodi:nodetypes="ccc" />
         <path
            style="display:inline;fill:#64c814;fill-opacity:1;stroke:#000000;stroke-width:3.32972;stroke-linecap:round;stroke-linejoin:round;stroke-dasharray:none;stroke-opacity:1"
            d="m 354.19127,334.06547 c -17.04287,-2.5693 -28.95987,8.18871 -51.1445,-7.74916 -7.38805,-15.61464 -6.23144,-33.93892 10.84883,-46.49502 17.8096,8.59633 28.37689,32.88437 40.29567,54.24418 z"
            id="path13" sodipodi:nodetypes="cccc" />
      </g>
      <g inkscape:groupmode="layer" id="layer2" inkscape:label="杂">
         <g inkscape:groupmode="layer" id="layer4" inkscape:label="木">
            <path
               style="fill:#ff0000;fill-opacity:1;stroke:#000000;stroke-width:3.32972;stroke-linecap:round;stroke-linejoin:round;stroke-dasharray:none;stroke-opacity:1"
               d="m 61.489271,259.99049 c -3.42236,12.31253 -2.35708,23.6278 0.7749,34.4838 l 71.292359,-1.16239 c -1.44505,23.99806 2.09732,52.98353 -4.64951,71.67981 13.659,3.71859 26.54794,3.58689 38.74584,0 24.41431,-4.71299 8.94669,-24.21713 15.8858,-65.093 l 73.61708,-1.16238 c 4.12727,-10.00722 4.93871,-23.32092 1.8903,-38.65988 l -75.11992,0.30151 c -2.74013,-4.35398 -4.09764,-10.55146 -4.64951,-17.8231 -14.82789,-5.15297 -31.07821,-3.48665 -43.00788,0.77491 l -1.48335,15.34593 z"
               id="path4" sodipodi:nodetypes="ccccccccccccc" />
            <path
               style="fill:#ff0000;fill-opacity:1;stroke:#000000;stroke-width:3.32972;stroke-linecap:round;stroke-linejoin:round;stroke-dasharray:none;stroke-opacity:1"
               d="m 78.343711,299.51124 c -4.87984,21.75881 -32.95704,59.58701 -14.14224,67.0303 l 34.4838,-0.77491 c 14.813829,-0.53382 18.081399,-44.68686 27.122089,-67.0303 z"
               id="path5" sodipodi:nodetypes="ccccc" />
            <path
               style="fill:#00ff00;fill-opacity:1;stroke:#000000;stroke-width:3.32972;stroke-linecap:round;stroke-linejoin:round;stroke-dasharray:none;stroke-opacity:1"
               d="m 218.59059,272.33019 18.63027,-16.43847 -6.16443,20.13712 z" id="path3" />
            <path
               style="fill:#f20000;fill-opacity:1;stroke:#000000;stroke-width:3.32972;stroke-linecap:round;stroke-linejoin:round;stroke-dasharray:none;stroke-opacity:1"
               d="m 201.36175,282.85054 c 11.86258,-13.24445 25.43745,-19.12598 44.5577,-1.16237 -11.83181,40.37219 -17.15588,77.27358 14.33596,94.53983 -27.07683,-4.4457 -57.16132,1.88605 -58.89366,-93.37746 z"
               id="path2" sodipodi:nodetypes="cccc" />
         </g>
         <g inkscape:groupmode="layer" id="layer3" inkscape:label="九">
            <path
               style="fill:url(#linearGradient2);stroke:#000000;stroke-width:3.32972;stroke-linecap:round;stroke-linejoin:round;stroke-dasharray:none;stroke-opacity:1"
               d="m 68.452581,167.80894 c -9.48346,2.3779 -6.52436,37.66707 0,38.90438 l 20.82205,1.64383 -26.74977,45.12554 48.507249,-0.71413 29.74973,-42.2196 47.25655,-1.84328 4.45009,45.45222 66.90482,-0.61158 -2.90022,-30.91496 -21.46403,-0.0275 -2.73974,-55.34283 h -78.35669 l 0.54795,-9.31514 -44.93182,-1.64383 1.64385,12.60282 z"
               id="path1" sodipodi:nodetypes="ccccccccccccccccc" />
         </g>
      </g>
   </g>
</svg>